<svg width="307" height="141" viewBox="0 0 307 141" fill="none" xmlns="http://www.w3.org/2000/svg">
<mask id="path-1-inside-1_290_856" fill="white">
<path d="M0 0H307V141H0V0Z"/>
</mask>
<path d="M0 0V-28H-30V0H0ZM307 0H337V-28H307V0ZM307 141V169H337V141H307ZM0 141H-30V169H0V141ZM0 28H307V-28H0V28ZM277 0V141H337V0H277ZM307 113H0V169H307V113ZM30 141V0H-30V141H30Z" fill="white" mask="url(#path-1-inside-1_290_856)"/>
<path d="M50.3445 28H37.8867L50.3445 46.3464V28Z" fill="white"/>
<path d="M167.418 94.8667H162.162V86.8326H167.418C170.416 86.8326 171.782 88.4046 171.782 90.8496C171.782 93.2947 170.416 94.8667 167.418 94.8667Z" fill="white"/>
<path fill-rule="evenodd" clip-rule="evenodd" d="M58.4965 28V61.3242H51.6628L38.152 41.8424V61.3242H30V113H194.913C188.613 111.673 184.682 106.919 184.682 99.2153V79.5142H193.093V98.4535C193.093 103.176 195.251 105.615 198.773 105.615C202.296 105.615 204.399 103.17 204.399 98.4535V79.5142H212.81V99.2709C212.81 106.928 208.917 111.674 202.63 113H226.437C220.911 111.877 217.233 108.322 216.291 102.958L225.082 102.957C225.765 105.235 227.657 106.376 230.284 106.376C232.913 106.376 234.647 105.235 234.647 103.176C234.647 101.605 233.651 100.9 231.596 100.406L225.39 99.0464C220.66 97.9613 217.082 95.4102 217.082 89.7646C217.082 83.2521 222.339 78.9664 229.488 78.9664C237.373 78.9664 241.845 83.4137 242.732 89.1717H234.478C233.795 87.3248 232.321 85.9154 229.535 85.9154C227.118 85.9154 225.487 87.0005 225.487 88.8474C225.487 90.3134 226.484 91.1246 228.17 91.5044L234.478 93.026C239.996 94.3798 243.047 97.4754 243.047 102.634C243.047 108.228 239.318 111.863 234.102 113H277V112.834L268.535 112.833V99.6456H256.075V112.832H247.609V79.5089H256.075V92.154H268.535V79.5089H277V55.6796H272.582V61.8678H265.326V55.6785H251.289V49.272L261.072 28.5425H269.114L260.231 48.6235H265.326V42.9778H272.582V48.6235H277V28H236.829H168.313C175.256 28 180.036 32.0727 180.036 39.3417C180.036 44.3882 177.565 47.8627 173.625 49.3843L181.196 61.3242H171.836L165.105 50.3078H162.162V61.3242H153.805V28H148.494V35.4926H133.72V40.7007H147.23V48.0306H133.72V53.7823H148.494V61.3242H125.411V28H121.949L109.912 61.3242H101.652L89.6093 28H82.4016L94.7028 61.3242H86.1341L83.8206 54.8684H72.0977L69.8382 61.3242H61.4798L73.779 28H58.4965ZM236.829 28C229.947 28 225.578 32.9405 224.95 39.1287H233.675V39.1298C233.778 37.3385 234.829 35.8169 236.829 35.8169L236.823 35.8231C238.72 35.8231 239.875 37.1265 239.875 38.9167C239.875 40.8686 238.4 42.5539 236.195 44.8877L225.101 56.284V61.873H248.497V54.3815H236.877L242.189 48.9541C245.452 45.6978 248.395 42.6536 248.395 38.3679C248.395 32.1797 243.712 28 236.829 28ZM208.786 36.6018L213.094 28.4617H220.925L216.351 36.6018H208.786ZM94.7028 112.832L82.4006 79.5089L82.3996 79.5079H73.783L61.4798 112.832H69.8382L72.0977 106.375H83.8206L86.1341 112.832H94.7028ZM106.154 112.839H97.6882V79.5142H106.154V112.839ZM162.162 112.832V101.817H165.105L171.836 112.833H181.196L173.625 100.893C177.565 99.3706 180.036 95.8972 180.036 90.8496C180.036 83.5827 175.256 79.5089 168.313 79.5089H153.805V112.832H162.162Z" fill="white"/>
<path d="M98.6487 28L105.954 49.547L113.272 28H98.6487Z" fill="white"/>
<path d="M77.9831 38.3123L81.2947 47.7001H74.6724L77.9831 38.3123Z" fill="white"/>
<path d="M162.162 43.3588H167.418C170.416 43.3588 171.782 41.7857 171.782 39.3407C171.782 36.8956 170.416 35.3236 167.418 35.3236H162.162V43.3588Z" fill="white"/>
<path d="M81.2947 100.352H74.6724L77.983 90.963L81.2947 100.352Z" fill="white"/>
</svg>
